<svg width="24" height="24" viewBox="0 0 24 24" fill="none" xmlns="http://www.w3.org/2000/svg">
<path d="M17.6663 8.27669H16.708V6.36003C16.708 3.71503 14.5613 1.56836 11.9163 1.56836C9.2713 1.56836 7.12463 3.71503 7.12463 6.36003V8.27669H6.1663C5.11213 8.27669 4.24963 9.13919 4.24963 10.1934V19.7767C4.24963 20.8309 5.11213 21.6934 6.1663 21.6934H17.6663C18.7205 21.6934 19.583 20.8309 19.583 19.7767V10.1934C19.583 9.13919 18.7205 8.27669 17.6663 8.27669ZM11.9163 16.9017C10.8621 16.9017 9.99963 16.0392 9.99963 14.985C9.99963 13.9309 10.8621 13.0684 11.9163 13.0684C12.9705 13.0684 13.833 13.9309 13.833 14.985C13.833 16.0392 12.9705 16.9017 11.9163 16.9017ZM9.0413 8.27669V6.36003C9.0413 4.76919 10.3255 3.48503 11.9163 3.48503C13.5071 3.48503 14.7913 4.76919 14.7913 6.36003V8.27669H9.0413Z" fill="white"/>
</svg>
