<svg width="28" height="28" viewBox="0 0 28 28" fill="none" xmlns="http://www.w3.org/2000/svg">
<path d="M20.2603 12.2202H15.7574V7.71727C15.7574 7.12015 15.5202 6.54748 15.0979 6.12526C14.6757 5.70303 14.1031 5.46582 13.5059 5.46582C12.9088 5.46582 12.3361 5.70303 11.9139 6.12526C11.4917 6.54748 11.2545 7.12015 11.2545 7.71727L11.3344 12.2202H6.75157C6.15445 12.2202 5.58179 12.4574 5.15956 12.8796C4.73733 13.3018 4.50012 13.8745 4.50012 14.4716C4.50012 15.0687 4.73733 15.6414 5.15956 16.0636C5.58179 16.4859 6.15445 16.7231 6.75157 16.7231L11.3344 16.6432L11.2545 21.226C11.2545 21.8231 11.4917 22.3958 11.9139 22.818C12.3361 23.2402 12.9088 23.4774 13.5059 23.4774C14.1031 23.4774 14.6757 23.2402 15.0979 22.818C15.5202 22.3958 15.7574 21.8231 15.7574 21.226V16.6432L20.2603 16.7231C20.8574 16.7231 21.4301 16.4859 21.8523 16.0636C22.2745 15.6414 22.5117 15.0687 22.5117 14.4716C22.5117 13.8745 22.2745 13.3018 21.8523 12.8796C21.4301 12.4574 20.8574 12.2202 20.2603 12.2202Z" fill="white"/>
</svg>
