<svg width="35" height="37" viewBox="0 0 35 37" fill="none" xmlns="http://www.w3.org/2000/svg">
<path d="M28.4375 8.375H24.6477L22.7842 5.50063C22.6843 5.34671 22.5491 5.2205 22.3906 5.13318C22.232 5.04586 22.0549 5.00011 21.875 5H13.125C12.9451 5.00011 12.768 5.04586 12.6094 5.13318C12.4509 5.2205 12.3157 5.34671 12.2158 5.50063L10.351 8.375H6.5625C5.69226 8.375 4.85766 8.73058 4.24231 9.36351C3.62695 9.99645 3.28125 10.8549 3.28125 11.75V27.5C3.28125 28.3951 3.62695 29.2536 4.24231 29.8865C4.85766 30.5194 5.69226 30.875 6.5625 30.875H28.4375C29.3077 30.875 30.1423 30.5194 30.7577 29.8865C31.373 29.2536 31.7188 28.3951 31.7188 27.5V11.75C31.7188 10.8549 31.373 9.99645 30.7577 9.36351C30.1423 8.73058 29.3077 8.375 28.4375 8.375ZM22.4219 19.0625C22.4219 20.0638 22.1332 21.0426 21.5924 21.8751C21.0516 22.7076 20.2829 23.3565 19.3835 23.7396C18.4842 24.1228 17.4945 24.2231 16.5398 24.0277C15.585 23.8324 14.708 23.3502 14.0197 22.6422C13.3314 21.9342 12.8626 21.0322 12.6727 20.0501C12.4828 19.0681 12.5803 18.0502 12.9528 17.1252C13.3253 16.2001 13.9562 15.4095 14.7656 14.8532C15.575 14.2969 16.5265 14 17.5 14C18.8054 14 20.0573 14.5334 20.9803 15.4828C21.9033 16.4322 22.4219 17.7198 22.4219 19.0625Z" fill="#3A2FC0"/>
</svg>
