<svg width="107" height="108" viewBox="0 0 107 108" fill="none" xmlns="http://www.w3.org/2000/svg">
<path d="M72.1322 82.9847C73.4697 83.6267 75.1327 85.2896 75.9396 86.6316C76.2071 88.5041 77.5446 81.2682 84.0895 76.9793M95.8639 80.9561C95.8639 85.6858 93.9851 90.2218 90.6407 93.5662C87.2963 96.9106 82.7603 98.7895 78.0306 98.7895C73.3009 98.7895 68.7649 96.9106 65.4205 93.5662C62.0761 90.2218 60.1973 85.6858 60.1973 80.9561C60.1973 76.2264 62.0761 71.6905 65.4205 68.3461C68.7649 65.0017 73.3009 63.1228 78.0306 63.1228C82.7603 63.1228 87.2963 65.0017 90.6407 68.3461C93.9851 71.6905 95.8639 76.2264 95.8639 80.9561Z" fill="#E87A00"/>
<path d="M72.1322 82.9847C73.4697 83.6267 75.1327 85.2896 75.9396 86.6316C76.2071 88.5041 77.5446 81.2682 84.0895 76.9793M95.8639 80.9561C95.8639 85.6858 93.9851 90.2218 90.6407 93.5662C87.2963 96.9106 82.7603 98.7895 78.0306 98.7895C73.3009 98.7895 68.7649 96.9106 65.4205 93.5662C62.0761 90.2218 60.1973 85.6858 60.1973 80.9561C60.1973 76.2264 62.0761 71.6905 65.4205 68.3461C68.7649 65.0017 73.3009 63.1228 78.0306 63.1228C82.7603 63.1228 87.2963 65.0017 90.6407 68.3461C93.9851 71.6905 95.8639 76.2264 95.8639 80.9561Z" stroke="white" stroke-width="3" stroke-linecap="round" stroke-linejoin="round"/>
<path d="M49.0871 63.1228C54.0116 63.1228 58.0037 59.1306 58.0037 54.2061C58.0037 49.2816 54.0116 45.2894 49.0871 45.2894C44.1625 45.2894 40.1704 49.2816 40.1704 54.2061C40.1704 59.1306 44.1625 63.1228 49.0871 63.1228Z" stroke="white" stroke-width="3" stroke-linecap="round" stroke-linejoin="round"/>
<path d="M33.483 80.9561C37.7184 76.9436 41.2851 74.7144 49.1986 74.2686M86.983 51.9769C86.983 48.4103 87.0945 37.4873 86.5372 33.029C86.2028 29.3509 85.1997 24.3353 80.6299 21.4373C77.8434 19.9884 75.1684 18.6509 62.3507 18.5394M35.4893 18.5394C25.9038 18.5394 18.4361 19.3196 14.758 23.8894C11.6372 28.156 11.82 33.029 11.5257 34.5894C10.857 42.9488 11.3028 72.1509 11.3028 77.055C11.3028 82.1821 10.9684 92.6013 17.9903 96.1144C24.0091 99.1238 30.2507 98.678 51.4278 98.7894M48.4184 9.62275C45.7434 9.62275 43.5143 9.62275 41.2851 11.9634C39.3903 13.7467 39.6801 15.3205 38.9445 18.0936C37.9012 21.9946 37.3841 24.0544 38.833 25.6728C40.1616 27.4115 42.3952 27.4204 44.3703 27.4249H44.4059C46.3007 27.5586 52.6672 27.4962 54.5486 27.4249C56.5638 27.3446 58.1911 27.2332 59.5643 25.4498C60.7903 23.8582 60.0636 21.2055 59.3413 18.428C58.628 15.6905 58.8955 14.304 57.0007 11.9634C54.3257 9.28838 51.0934 9.62275 48.4184 9.62275Z" stroke="white" stroke-width="3" stroke-linecap="round" stroke-linejoin="round"/>
</svg>
