<svg width="24" height="26" viewBox="0 0 24 26" fill="none" xmlns="http://www.w3.org/2000/svg">
<path fill-rule="evenodd" clip-rule="evenodd" d="M12.7071 2.4132C12.5196 2.21792 12.2652 2.10822 12.0001 2.10822C11.7349 2.10822 11.4806 2.21792 11.2931 2.4132L4.29308 9.70487L2.29308 11.7882C2.19757 11.8843 2.12139 11.9992 2.06898 12.1263C2.01657 12.2534 1.98898 12.3901 1.98783 12.5284C1.98668 12.6667 2.01198 12.8039 2.06226 12.9319C2.11254 13.0599 2.18679 13.1762 2.28069 13.274C2.37458 13.3718 2.48623 13.4492 2.60913 13.5016C2.73202 13.5539 2.8637 13.5803 2.99648 13.5791C3.12926 13.5779 3.26048 13.5491 3.38249 13.4946C3.50449 13.44 3.61483 13.3606 3.70708 13.2611L4.00008 12.9559V19.8163C4.00008 20.6451 4.31615 21.44 4.87876 22.026C5.44137 22.6121 6.20443 22.9413 7.00008 22.9413H17.0001C17.7957 22.9413 18.5588 22.6121 19.1214 22.026C19.684 21.44 20.0001 20.6451 20.0001 19.8163V12.9559L20.2931 13.2611C20.4817 13.4509 20.7343 13.5559 20.9965 13.5535C21.2587 13.5511 21.5095 13.4416 21.6949 13.2484C21.8803 13.0553 21.9855 12.794 21.9878 12.5209C21.99 12.2478 21.8892 11.9847 21.7071 11.7882L12.7071 2.4132Z" fill="white"/>
</svg>
