<svg width="11" height="13" viewBox="0 0 11 13" fill="none" xmlns="http://www.w3.org/2000/svg">
<path d="M0.5 6.5C0.5 6.33424 0.565847 6.17527 0.683058 6.05806C0.800268 5.94085 0.95924 5.875 1.125 5.875H5.86875L4.43125 4.44375C4.37298 4.38548 4.32675 4.31629 4.29521 4.24016C4.26367 4.16402 4.24744 4.08241 4.24744 4C4.24744 3.91759 4.26367 3.83598 4.29521 3.75984C4.32675 3.68371 4.37298 3.61452 4.43125 3.55625C4.48952 3.49798 4.55871 3.45175 4.63484 3.42021C4.71098 3.38868 4.79259 3.37244 4.875 3.37244C4.95741 3.37244 5.03902 3.38868 5.11516 3.42021C5.19129 3.45175 5.26048 3.49798 5.31875 3.55625L7.81875 6.05625C7.87565 6.11569 7.92025 6.18578 7.95 6.2625C8.01251 6.41466 8.01251 6.58534 7.95 6.7375C7.92025 6.81422 7.87565 6.88431 7.81875 6.94375L5.31875 9.44375C5.26065 9.50233 5.19152 9.54883 5.11536 9.58056C5.0392 9.61229 4.95751 9.62862 4.875 9.62862C4.79249 9.62862 4.7108 9.61229 4.63464 9.58056C4.55848 9.54883 4.48935 9.50233 4.43125 9.44375C4.37267 9.38565 4.32617 9.31652 4.29444 9.24036C4.26271 9.1642 4.24638 9.08251 4.24638 9C4.24638 8.91749 4.26271 8.8358 4.29444 8.75964C4.32617 8.68348 4.37267 8.61435 4.43125 8.55625L5.86875 7.125H1.125C0.95924 7.125 0.800268 7.05915 0.683058 6.94194C0.565847 6.82473 0.5 6.66576 0.5 6.5ZM2.375 0.25H8.625C9.12228 0.25 9.59919 0.447544 9.95083 0.799175C10.3025 1.15081 10.5 1.62772 10.5 2.125V10.875C10.5 11.3723 10.3025 11.8492 9.95083 12.2008C9.59919 12.5525 9.12228 12.75 8.625 12.75H2.375C1.87772 12.75 1.40081 12.5525 1.04917 12.2008C0.697544 11.8492 0.5 11.3723 0.5 10.875V9C0.5 8.83424 0.565847 8.67527 0.683058 8.55806C0.800268 8.44085 0.95924 8.375 1.125 8.375C1.29076 8.375 1.44973 8.44085 1.56694 8.55806C1.68415 8.67527 1.75 8.83424 1.75 9V10.875C1.75 11.0408 1.81585 11.1997 1.93306 11.3169C2.05027 11.4342 2.20924 11.5 2.375 11.5H8.625C8.79076 11.5 8.94973 11.4342 9.06694 11.3169C9.18415 11.1997 9.25 11.0408 9.25 10.875V2.125C9.25 1.95924 9.18415 1.80027 9.06694 1.68306C8.94973 1.56585 8.79076 1.5 8.625 1.5H2.375C2.20924 1.5 2.05027 1.56585 1.93306 1.68306C1.81585 1.80027 1.75 1.95924 1.75 2.125V4C1.75 4.16576 1.68415 4.32473 1.56694 4.44194C1.44973 4.55915 1.29076 4.625 1.125 4.625C0.95924 4.625 0.800268 4.55915 0.683058 4.44194C0.565847 4.32473 0.5 4.16576 0.5 4V2.125C0.5 1.62772 0.697544 1.15081 1.04917 0.799175C1.40081 0.447544 1.87772 0.25 2.375 0.25Z" fill="#3A2FC0"/>
</svg>
