<svg width="11" height="13" viewBox="0 0 11 13" fill="none" xmlns="http://www.w3.org/2000/svg">
<path d="M10.5 6.5C10.5 6.33424 10.4342 6.17527 10.3169 6.05806C10.1997 5.94085 10.0408 5.875 9.875 5.875H5.13125L6.56875 4.44375C6.62702 4.38548 6.67325 4.31629 6.70479 4.24016C6.73633 4.16402 6.75256 4.08241 6.75256 4C6.75256 3.91759 6.73633 3.83598 6.70479 3.75984C6.67325 3.68371 6.62702 3.61452 6.56875 3.55625C6.51048 3.49798 6.44129 3.45175 6.36516 3.42021C6.28902 3.38868 6.20741 3.37244 6.125 3.37244C6.04259 3.37244 5.96098 3.38868 5.88484 3.42021C5.80871 3.45175 5.73952 3.49798 5.68125 3.55625L3.18125 6.05625C3.12435 6.11569 3.07975 6.18578 3.05 6.2625C2.98749 6.41466 2.98749 6.58534 3.05 6.7375C3.07975 6.81422 3.12435 6.88431 3.18125 6.94375L5.68125 9.44375C5.73935 9.50233 5.80848 9.54883 5.88464 9.58056C5.9608 9.61229 6.04249 9.62862 6.125 9.62862C6.20751 9.62862 6.2892 9.61229 6.36536 9.58056C6.44152 9.54883 6.51065 9.50233 6.56875 9.44375C6.62733 9.38565 6.67383 9.31652 6.70556 9.24036C6.73729 9.1642 6.75362 9.08251 6.75362 9C6.75362 8.91749 6.73729 8.8358 6.70556 8.75964C6.67383 8.68348 6.62733 8.61435 6.56875 8.55625L5.13125 7.125H9.875C10.0408 7.125 10.1997 7.05915 10.3169 6.94194C10.4342 6.82473 10.5 6.66576 10.5 6.5ZM8.625 0.25H2.375C1.87772 0.25 1.40081 0.447544 1.04917 0.799175C0.697544 1.15081 0.5 1.62772 0.5 2.125V10.875C0.5 11.3723 0.697544 11.8492 1.04917 12.2008C1.40081 12.5525 1.87772 12.75 2.375 12.75H8.625C9.12228 12.75 9.59919 12.5525 9.95083 12.2008C10.3025 11.8492 10.5 11.3723 10.5 10.875V9C10.5 8.83424 10.4342 8.67527 10.3169 8.55806C10.1997 8.44085 10.0408 8.375 9.875 8.375C9.70924 8.375 9.55027 8.44085 9.43306 8.55806C9.31585 8.67527 9.25 8.83424 9.25 9V10.875C9.25 11.0408 9.18415 11.1997 9.06694 11.3169C8.94973 11.4342 8.79076 11.5 8.625 11.5H2.375C2.20924 11.5 2.05027 11.4342 1.93306 11.3169C1.81585 11.1997 1.75 11.0408 1.75 10.875V2.125C1.75 1.95924 1.81585 1.80027 1.93306 1.68306C2.05027 1.56585 2.20924 1.5 2.375 1.5H8.625C8.79076 1.5 8.94973 1.56585 9.06694 1.68306C9.18415 1.80027 9.25 1.95924 9.25 2.125V4C9.25 4.16576 9.31585 4.32473 9.43306 4.44194C9.55027 4.55915 9.70924 4.625 9.875 4.625C10.0408 4.625 10.1997 4.55915 10.3169 4.44194C10.4342 4.32473 10.5 4.16576 10.5 4V2.125C10.5 1.62772 10.3025 1.15081 9.95083 0.799175C9.59919 0.447544 9.12228 0.25 8.625 0.25Z" fill="#E36204"/>
</svg>
