<svg width="23" height="23" viewBox="0 0 23 23" fill="none" xmlns="http://www.w3.org/2000/svg">
<path d="M19.1666 16.0663C19.5358 16.0665 19.8908 16.2025 20.1579 16.4462C20.4251 16.6899 20.584 17.0226 20.6018 17.3753C20.6195 17.728 20.4947 18.0737 20.2532 18.3408C20.0117 18.6079 19.6721 18.7759 19.3046 18.8099L19.1666 18.8163H3.83331C3.46415 18.8162 3.1092 18.6802 2.84203 18.4365C2.57485 18.1928 2.41593 17.8601 2.39819 17.5074C2.38044 17.1547 2.50525 16.809 2.74673 16.5419C2.98822 16.2748 3.32787 16.1068 3.69531 16.0728L3.83331 16.0663H19.1666ZM19.1666 9.64968C19.5479 9.64968 19.9135 9.79455 20.1831 10.0524C20.4527 10.3103 20.6041 10.66 20.6041 11.0247C20.6041 11.3894 20.4527 11.7391 20.1831 11.997C19.9135 12.2548 19.5479 12.3997 19.1666 12.3997H3.83331C3.45206 12.3997 3.08643 12.2548 2.81685 11.997C2.54726 11.7391 2.39581 11.3894 2.39581 11.0247C2.39581 10.66 2.54726 10.3103 2.81685 10.0524C3.08643 9.79455 3.45206 9.64968 3.83331 9.64968H19.1666ZM19.1666 3.23302C19.5479 3.23302 19.9135 3.37788 20.1831 3.63575C20.4527 3.89361 20.6041 4.24334 20.6041 4.60802C20.6041 4.97269 20.4527 5.32243 20.1831 5.58029C19.9135 5.83815 19.5479 5.98302 19.1666 5.98302H3.83331C3.45206 5.98302 3.08643 5.83815 2.81685 5.58029C2.54726 5.32243 2.39581 4.97269 2.39581 4.60802C2.39581 4.24334 2.54726 3.89361 2.81685 3.63575C3.08643 3.37788 3.45206 3.23302 3.83331 3.23302H19.1666Z" fill="white"/>
</svg>
