<svg width="25" height="26" viewBox="0 0 25 26" fill="none" xmlns="http://www.w3.org/2000/svg">
<g clip-path="url(#clip0_112_4599)">
<path fill-rule="evenodd" clip-rule="evenodd" d="M8.8186 7.28027C8.8186 6.21941 9.24003 5.20199 9.99018 4.45185C10.7403 3.7017 11.7577 3.28027 12.8186 3.28027C13.8795 3.28027 14.8969 3.7017 15.647 4.45185C16.3972 5.20199 16.8186 6.21941 16.8186 7.28027C16.8186 8.34114 16.3972 9.35856 15.647 10.1087C14.8969 10.8588 13.8795 11.2803 12.8186 11.2803C11.7577 11.2803 10.7403 10.8588 9.99018 10.1087C9.24003 9.35856 8.8186 8.34114 8.8186 7.28027ZM8.8186 13.2803C7.49252 13.2803 6.22075 13.8071 5.28307 14.7447C4.34539 15.6824 3.8186 16.9542 3.8186 18.2803C3.8186 19.0759 4.13467 19.839 4.69728 20.4016C5.25989 20.9642 6.02295 21.2803 6.8186 21.2803H18.8186C19.6143 21.2803 20.3773 20.9642 20.9399 20.4016C21.5025 19.839 21.8186 19.0759 21.8186 18.2803C21.8186 16.9542 21.2918 15.6824 20.3541 14.7447C19.4165 13.8071 18.1447 13.2803 16.8186 13.2803H8.8186Z" fill="white"/>
</g>
<defs>
<clipPath id="clip0_112_4599">
<rect width="24" height="25" fill="white" transform="translate(0.817383 0.280273)"/>
</clipPath>
</defs>
</svg>
