<svg width="25" height="26" viewBox="0 0 25 26" fill="none" xmlns="http://www.w3.org/2000/svg">
<g clip-path="url(#clip0_139_2768)">
<g clip-path="url(#clip1_139_2768)">
<path d="M11.0009 4C11.5054 3.99984 11.9914 4.19041 12.3614 4.5335C12.7314 4.87659 12.958 5.34684 12.9959 5.85L13.0009 6V12C13.001 12.5046 12.8104 12.9906 12.4674 13.3605C12.1243 13.7305 11.654 13.9572 11.1509 13.995L11.0009 14H5.00085C4.49628 14.0002 4.01029 13.8096 3.64031 13.4665C3.27033 13.1234 3.0437 12.6532 3.00585 12.15L3.00085 12V6C3.00069 5.49542 3.19126 5.00943 3.53435 4.63945C3.87744 4.26947 4.3477 4.04284 4.85085 4.005L5.00085 4H11.0009ZM11.0009 6H5.00085V12H11.0009V6ZM9.50085 7C9.61788 6.99996 9.73121 7.04097 9.82111 7.11589C9.91102 7.19081 9.97179 7.29489 9.99285 7.41L10.0009 7.5V10.5C10.0009 10.617 9.95988 10.7304 9.88496 10.8203C9.81005 10.9102 9.70597 10.9709 9.59085 10.992L9.50085 11H6.50085C6.38383 11 6.2705 10.959 6.1806 10.8841C6.09069 10.8092 6.02992 10.7051 6.00885 10.59L6.00085 10.5V7.5C6.00082 7.38297 6.04183 7.26964 6.11674 7.17974C6.19166 7.08984 6.29574 7.02906 6.41085 7.008L6.50085 7H9.50085ZM21.0009 6C21.0009 5.46957 20.7901 4.96086 20.4151 4.58579C20.04 4.21071 19.5313 4 19.0009 4H17.0009C16.4704 4 15.9617 4.21071 15.5866 4.58579C15.2116 4.96086 15.0009 5.46957 15.0009 6V8C15.0009 8.53043 15.2116 9.03914 15.5866 9.41421C15.9617 9.78929 16.4704 10 17.0009 10H19.0009C19.5313 10 20.04 9.78929 20.4151 9.41421C20.7901 9.03914 21.0009 8.53043 21.0009 8V6ZM3.00085 18C3.00085 17.4696 3.21157 16.9609 3.58664 16.5858C3.96171 16.2107 4.47042 16 5.00085 16H7.00085C7.53129 16 8.03999 16.2107 8.41507 16.5858C8.79014 16.9609 9.00085 17.4696 9.00085 18V20C9.00085 20.5304 8.79014 21.0391 8.41507 21.4142C8.03999 21.7893 7.53129 22 7.00085 22H5.00085C4.47042 22 3.96171 21.7893 3.58664 21.4142C3.21157 21.0391 3.00085 20.5304 3.00085 20V18ZM19.0009 16C19.5313 16 20.04 16.2107 20.4151 16.5858C20.7901 16.9609 21.0009 17.4696 21.0009 18V20C21.0009 20.5304 20.7901 21.0391 20.4151 21.4142C20.04 21.7893 19.5313 22 19.0009 22H17.0009C16.4704 22 15.9617 21.7893 15.5866 21.4142C15.2116 21.0391 15.0009 20.5304 15.0009 20V18C15.0009 17.4696 15.2116 16.9609 15.5866 16.5858C15.9617 16.2107 16.4704 16 17.0009 16H19.0009ZM15.0009 13C15.0009 12.7348 15.1062 12.4804 15.2937 12.2929C15.4813 12.1054 15.7356 12 16.0009 12H20.0009C20.2661 12 20.5204 12.1054 20.708 12.2929C20.8955 12.4804 21.0009 12.7348 21.0009 13C21.0009 13.2652 20.8955 13.5196 20.708 13.7071C20.5204 13.8946 20.2661 14 20.0009 14H16.0009C15.7356 14 15.4813 13.8946 15.2937 13.7071C15.1062 13.5196 15.0009 13.2652 15.0009 13ZM13.0009 17C13.0009 16.7348 12.8955 16.4804 12.708 16.2929C12.5204 16.1054 12.2661 16 12.0009 16C11.7356 16 11.4813 16.1054 11.2937 16.2929C11.1062 16.4804 11.0009 16.7348 11.0009 17V21C11.0009 21.2652 11.1062 21.5196 11.2937 21.7071C11.4813 21.8946 11.7356 22 12.0009 22C12.2661 22 12.5204 21.8946 12.708 21.7071C12.8955 21.5196 13.0009 21.2652 13.0009 21V17Z" fill="white"/>
</g>
</g>
<defs>
<clipPath id="clip0_139_2768">
<rect width="24" height="25" fill="white" transform="translate(0.209961 0.10791)"/>
</clipPath>
<clipPath id="clip1_139_2768">
<rect width="24" height="24" fill="white" transform="translate(0.000854492 1)"/>
</clipPath>
</defs>
</svg>
