<svg width="27" height="28" viewBox="0 0 27 28" fill="none" xmlns="http://www.w3.org/2000/svg">
<path d="M13.4788 6.89062C17.608 6.89062 20.9553 10.238 20.9553 14.3672V19.8281C20.9553 20.027 20.8763 20.2178 20.7357 20.3585C20.595 20.4991 20.4042 20.5781 20.2053 20.5781H6.7522C6.55329 20.5781 6.36253 20.4991 6.22187 20.3585C6.08122 20.2178 6.0022 20.027 6.0022 19.8281V14.3672C6.0022 10.238 9.34955 6.89062 13.4788 6.89062ZM12.8225 2.76562H14.135C14.1847 2.76562 14.2324 2.78538 14.2676 2.82054C14.3028 2.85571 14.3225 2.9034 14.3225 2.95312V5.20312C14.3225 5.25285 14.3028 5.30054 14.2676 5.33571C14.2324 5.37087 14.1847 5.39062 14.135 5.39062H12.8225C12.7728 5.39062 12.7251 5.37087 12.6899 5.33571C12.6548 5.30054 12.635 5.25285 12.635 5.20312V2.95312C12.635 2.9034 12.6548 2.85571 12.6899 2.82054C12.7251 2.78538 12.7728 2.76562 12.8225 2.76562ZM5.63306 5.66391C5.65048 5.64647 5.67116 5.63264 5.69392 5.62321C5.71668 5.61377 5.74108 5.60891 5.76572 5.60891C5.79036 5.60891 5.81476 5.61377 5.83752 5.62321C5.86028 5.63264 5.88096 5.64647 5.89838 5.66391L7.48931 7.25484C7.52445 7.29 7.54419 7.33768 7.54419 7.38738C7.54419 7.43709 7.52445 7.48476 7.48931 7.51992L6.56119 8.44805C6.52603 8.48318 6.47836 8.50292 6.42865 8.50292C6.37894 8.50292 6.33127 8.48318 6.29611 8.44805L4.70517 6.85711C4.67004 6.82195 4.6503 6.77428 4.6503 6.72457C4.6503 6.67486 4.67004 6.62719 4.70517 6.59203L5.6333 5.66391H5.63306ZM21.3268 5.66391L22.2549 6.59203C22.29 6.62718 22.3097 6.6748 22.3097 6.72445C22.3097 6.7741 22.29 6.82172 22.2549 6.85687L20.664 8.44828C20.6466 8.46571 20.6259 8.47954 20.6031 8.48898C20.5804 8.49842 20.556 8.50327 20.5313 8.50327C20.5067 8.50327 20.4823 8.49842 20.4595 8.48898C20.4368 8.47954 20.4161 8.46571 20.3987 8.44828L19.4706 7.52016C19.4531 7.50274 19.4393 7.48206 19.4299 7.4593C19.4204 7.43654 19.4156 7.41214 19.4156 7.3875C19.4156 7.36286 19.4204 7.33846 19.4299 7.3157C19.4393 7.29294 19.4531 7.27226 19.4706 7.25484L21.0617 5.66391C21.0969 5.62877 21.1446 5.60903 21.1943 5.60903C21.244 5.60903 21.2917 5.62877 21.3268 5.66391ZM5.97877 22.0781H20.9788C21.1777 22.0781 21.3684 22.1571 21.5091 22.2978C21.6497 22.4384 21.7288 22.6292 21.7288 22.8281V23.3906C21.7288 23.4404 21.709 23.488 21.6738 23.5232C21.6387 23.5584 21.591 23.5781 21.5413 23.5781H5.41627C5.36654 23.5781 5.31885 23.5584 5.28368 23.5232C5.24852 23.488 5.22877 23.4404 5.22877 23.3906V22.8281C5.22877 22.6292 5.30778 22.4384 5.44844 22.2978C5.58909 22.1571 5.77985 22.0781 5.97877 22.0781ZM9.44752 14.6484V20.5781H10.9475V14.6484H9.44752Z" fill="white"/>
</svg>
