<svg width="34" height="33" viewBox="0 0 34 33" fill="none" xmlns="http://www.w3.org/2000/svg">
<path d="M5.97559 8.25H3.22559V27.5C3.22559 29.0125 4.46309 30.25 5.97559 30.25H25.2256V27.5H5.97559V8.25ZM27.9756 2.75H11.4756C9.96309 2.75 8.72559 3.9875 8.72559 5.5V22C8.72559 23.5125 9.96309 24.75 11.4756 24.75H27.9756C29.4881 24.75 30.7256 23.5125 30.7256 22V5.5C30.7256 3.9875 29.4881 2.75 27.9756 2.75ZM26.6006 15.125H21.1006V20.625H18.3506V15.125H12.8506V12.375H18.3506V6.875H21.1006V12.375H26.6006V15.125Z" fill="#E36204"/>
</svg>
